<svg id="Layer_1" data-name="Layer 1" xmlns="http://www.w3.org/2000/svg" viewBox="0 0 126 46"><defs><style>.cls-1,.cls-2{fill:#fff;}.cls-1{stroke:#f74f22;stroke-miterlimit:10;stroke-width:3px;}.cls-10,.cls-11,.cls-3{fill:#f74f22;}.cls-4{fill:#d63f21;}.cls-5{fill:#ad250e;}.cls-6{fill:#7f2213;}.cls-7{fill:#a32619;}.cls-8{fill:#b52b21;}.cls-9{fill:#d33835;}.cls-10{font-size:21.66px;font-family:Antonio-Bold, Antonio;font-weight:700;}.cls-11{font-size:10.13px;font-family:Roboto-Regular, Roboto;}</style></defs><rect class="cls-1" width="126" height="46"/><path class="cls-2" d="M35.31,34.65A15.1,15.1,0,0,1,29.08,36l-1.91,0H23.1l-6.48,0c-.22,0-.43,0-.71,0V23.49H15.8V13.94H13.92V37.63H26.86l2.17,0a17.71,17.71,0,0,0,7.11-1.52V34.24ZM18.87,33l.58,0h2.09V13.94H18.78v8.89h.09ZM28.78,6.62H13.9v3c.13.29.44.39,1,.39h.92V8.88h.06c0-.22,0-.44,0-.67.39,0,.68,0,1,0H28.87a15.51,15.51,0,0,1,5.74,1.09A7.57,7.57,0,0,0,28.78,6.62Zm2.87,8.94.14,0v0Z"/><path class="cls-3" d="M31.79,15.56v0l-.14,0Z"/><path class="cls-3" d="M18.87,33V22.83h-.09V13.94h2.76V33.05H19.45Z"/><path class="cls-3" d="M35.82,36.3a17.2,17.2,0,0,1-7,1.55H22l-7.32,0c-.24,0-.49,0-.8-.05V13.94H15.8v9.55h.11V36c.28,0,.49,0,.71,0l6.48,0h4.07l1.91,0a15.1,15.1,0,0,0,6.23-1.36l.83-.41a13.69,13.69,0,0,0,7.39-13.58,14,14,0,0,0-8.22-11.1l-.7-.3a15.51,15.51,0,0,0-5.74-1.09h-12c-.29,0-.58,0-1,0,0,.23,0,.45,0,.67H15.8V10h-.92c-.54,0-.85-.1-1-.39a1.32,1.32,0,0,1-.06-.6c.06-.83,0-1.67,0-2.59.44,0,.77,0,1.1,0h13.6A17.33,17.33,0,0,1,35.82,8a15.73,15.73,0,0,1,9.27,12.52A15.51,15.51,0,0,1,35.82,36.3Z"/><path class="cls-4" d="M18.78,13.94v8.89h.09V33l.58,0h2.09V13.94Zm12.87,1.62.14,0v0Z"/><path class="cls-4" d="M36.14,34.24l-.83.41A15.1,15.1,0,0,1,29.08,36l-1.91,0H23.1l-6.48,0c-.22,0-.43,0-.71,0V23.49H15.8V13.94h3v8.89h.09V33l.58,0h2.09V34.2c1.3,0,2.52,0,3.73,0,.14,0,.36-.43.36-.66s0-.3,0-.45h4a12.43,12.43,0,0,0,5.09-1.11,13.13,13.13,0,0,0,1.43-.77,11.13,11.13,0,0,0,5.27-10.65A11.25,11.25,0,0,0,36,12.16a12.49,12.49,0,0,0-1.3-.7,12.32,12.32,0,0,0-1.36-.52v-.86c-.39,0-.78-.06-1.16-.06-5.46,0-10.93,0-16.39,0V8.88h.06c0-.22,0-.44,0-.67.39,0,.68,0,1,0H28.87a15.51,15.51,0,0,1,5.74,1.09l.7.3a14,14,0,0,1,8.22,11.1A13.69,13.69,0,0,1,36.14,34.24Z"/><path class="cls-4" d="M21.54,14.05V33H20.2l-.49,0v-8.5h-.08V18h.13V15.33h-.13v-.79h0c0-.15,0-.3,0-.45.28,0,.48,0,.68,0Z"/><path class="cls-4" d="M31.79,15.56v0l-.14,0Z"/><path class="cls-5" d="M21.54,13.94V33.05H19.45l-.58,0V22.83h-.09V13.94Z"/><path class="cls-6" d="M38.87,22.57A9.24,9.24,0,0,0,36.14,17a10.2,10.2,0,0,0-3-2l-.49-.21c-.29-.11-.59-.21-.89-.3l-.14,0a11,11,0,0,0-2.95-.41H25.64v1c0,5,0,10,0,15,0,1,0,2,0,3h3.2a10.79,10.79,0,0,0,4.33-.93l.57-.28a10.21,10.21,0,0,0,2.4-1.75A9,9,0,0,0,38.87,22.57Zm-7.08-7-.14,0h.14Z"/><path class="cls-7" d="M36.75,24.24a7.79,7.79,0,0,0-2.3-4.66,8.51,8.51,0,0,0-2.5-1.7l-.41-.17a6.49,6.49,0,0,0-.74-.26l-.13,0a9.09,9.09,0,0,0-2.47-.33H25.62V30.57c0,.83,0,1.66,0,2.49h2.7A9,9,0,0,0,32,32.27c.17-.08.33-.15.48-.24a8.25,8.25,0,0,0,2-1.47A7.57,7.57,0,0,0,36.75,24.24ZM30.8,18.38l-.13,0h.13Z"/><path class="cls-8" d="M34.91,25.27A6.4,6.4,0,0,0,33,21.38,7.07,7.07,0,0,0,30.91,20l-.34-.14c-.21-.08-.41-.15-.62-.21a.23.23,0,0,0-.11,0,7.4,7.4,0,0,0-2.07-.29H25.62V30.56c0,.69,0,1.38,0,2.08h2.25a7.59,7.59,0,0,0,3-.66l.4-.19A6.93,6.93,0,0,0,33,30.55,6.31,6.31,0,0,0,34.91,25.27Zm-5-4.9-.11,0H30Z"/><path class="cls-9" d="M33.35,26.61a5.25,5.25,0,0,0-1.57-3.19,5.76,5.76,0,0,0-1.7-1.16l-.28-.12a5.17,5.17,0,0,0-.51-.18l-.09,0a6.21,6.21,0,0,0-1.69-.23H25.75v.58c0,2.88,0,5.76,0,8.65,0,.56,0,1.13,0,1.7h1.84a6.17,6.17,0,0,0,2.49-.54l.33-.16a6,6,0,0,0,1.37-1A5.17,5.17,0,0,0,33.35,26.61Zm-4.06-4-.09,0h.09Z"/><path class="cls-5" d="M31.79,15.56v0l-.14,0Z"/><path class="cls-5" d="M36.14,31.17a13.13,13.13,0,0,1-1.43.77,12.43,12.43,0,0,1-5.09,1.11h-.78a10.79,10.79,0,0,0,4.33-.93l.57-.28a10.21,10.21,0,0,0,2.4-1.75,9,9,0,0,0,2.73-7.52A9.24,9.24,0,0,0,36.14,17a10.2,10.2,0,0,0-3-2l-.49-.21c-.29-.11-.59-.21-.89-.3l-.14,0a11,11,0,0,0-2.95-.41H25.64v-.16h7.71v-3a12.32,12.32,0,0,1,1.36.52,12.49,12.49,0,0,1,1.3.7,11.25,11.25,0,0,1,5.4,8.36A11.13,11.13,0,0,1,36.14,31.17Z"/><path class="cls-4" d="M31.79,15.56v0l-.14,0Z"/><text class="cls-10" transform="translate(51.71 27.2) scale(1.07 1)">DHYAS</text><text class="cls-11" transform="translate(63.25 37.63) scale(1.02 1)">TRUST</text></svg>